<!DOCTYPE svg PUBLIC "-//W3C//DTD SVG 1.1//EN" "http://www.w3.org/Graphics/SVG/1.1/DTD/svg11.dtd">
<!-- Uploaded to: SVG Repo, www.svgrepo.com, Transformed by: SVG Repo Mixer Tools -->
<svg height="800px" width="800px" version="1.1" id="Capa_1" xmlns="http://www.w3.org/2000/svg" xmlns:xlink="http://www.w3.org/1999/xlink" viewBox="0 0 302.51 302.51" xml:space="preserve" fill="#000000">
<g id="SVGRepo_bgCarrier" stroke-width="0"/>
<g id="SVGRepo_tracerCarrier" stroke-linecap="round" stroke-linejoin="round"/>
<g id="SVGRepo_iconCarrier"> <g> <g> <path style="fill:#000000;" d="M27.195,230.423h252.933c3.595,0,7.038-1.43,9.584-3.965c2.535-2.545,3.965-5.999,3.965-9.584 V36.211c0-7.484-6.059-13.554-13.549-13.554H27.195c-3.595,0-7.044,1.436-9.584,3.971c-2.535,2.54-3.965,5.994-3.965,9.584 v180.664c0,3.742,1.512,7.136,3.965,9.584C20.059,228.906,23.453,230.423,27.195,230.423z M40.739,49.759h225.835V203.32H40.739 V49.759z"/> <g> <path style="fill:#000000;" d="M288.863,279.853H13.647C6.108,279.853,0,273.74,0,266.201c0-7.533,6.114-13.647,13.647-13.647 h275.217c7.539,0,13.647,6.114,13.647,13.647C302.51,273.74,296.402,279.853,288.863,279.853z"/> </g> </g> </g> </g>
</svg>